<?xml version="1.0" encoding="UTF-8"?>
<!DOCTYPE svg PUBLIC "-//W3C//DTD SVG 1.1//EN" "http://www.w3.org/Graphics/SVG/1.1/DTD/svg11.dtd">
<!-- Creator: CorelDRAW 2021 (64-Bit) -->
<svg xmlns="http://www.w3.org/2000/svg" xml:space="preserve" width="108px" height="14px" version="1.1" style="shape-rendering:geometricPrecision; text-rendering:geometricPrecision; image-rendering:optimizeQuality; fill-rule:evenodd; clip-rule:evenodd"
viewBox="0 0 41.446 5.533"
 xmlns:xlink="http://www.w3.org/1999/xlink"
 xmlns:xodm="http://www.corel.com/coreldraw/odm/2003">
 <defs>
  <style type="text/css">
   <![CDATA[
    .fil0 {fill:#006039;fill-rule:nonzero}
    .fil1 {fill:black;fill-opacity:0.000000}
   ]]>
  </style>
 </defs>
 <g id="Warstwa_x0020_1">
  <metadata id="CorelCorpID_0Corel-Layer"/>
  <path class="fil0" d="M7.881 1.625c-0.257,0 -0.493,0.128 -0.707,0.385 -0.214,0.257 -0.369,0.559 -0.464,0.907 0.503,-0.04 0.883,-0.155 1.137,-0.344 0.254,-0.189 0.382,-0.389 0.382,-0.601 0,-0.101 -0.032,-0.183 -0.095,-0.249 -0.063,-0.066 -0.147,-0.098 -0.253,-0.098zm-0.642 3.839c-0.691,0 -1.223,-0.179 -1.599,-0.537 -0.375,-0.358 -0.563,-0.841 -0.563,-1.451 0,-0.811 0.279,-1.47 0.835,-1.976 0.557,-0.506 1.256,-0.759 2.097,-0.759 0.469,0 0.824,0.104 1.066,0.313 0.242,0.209 0.363,0.485 0.363,0.828 0,0.468 -0.228,0.857 -0.684,1.167 -0.456,0.31 -1.16,0.467 -2.112,0.472 0.015,0.323 0.088,0.576 0.219,0.76 0.131,0.184 0.295,0.276 0.491,0.276 0.197,0 0.366,-0.066 0.51,-0.197 0.144,-0.131 0.215,-0.345 0.215,-0.642 0.736,0 1.104,0.174 1.104,0.521 0,0.298 -0.182,0.576 -0.544,0.835 -0.363,0.26 -0.829,0.39 -1.398,0.39z"/>
  <path class="fil0" d="M9.633 2.547c-0.035,-0.141 -0.053,-0.272 -0.053,-0.394 0,-0.246 0.073,-0.433 0.219,-0.558 0.146,-0.127 0.335,-0.189 0.567,-0.189 0,-0.263 -0.068,-0.547 -0.204,-0.854 0.247,-0.182 0.472,-0.319 0.676,-0.412 0.204,-0.093 0.42,-0.14 0.646,-0.14 0.227,0 0.385,0.042 0.473,0.125 0.088,0.083 0.132,0.21 0.132,0.381 0,0.171 -0.035,0.438 -0.106,0.801 0.202,-0.03 0.406,-0.073 0.612,-0.128 0.036,0.106 0.053,0.242 0.053,0.408 0,0.166 -0.064,0.321 -0.192,0.465 -0.129,0.143 -0.317,0.215 -0.563,0.215l-0.114 0c-0.181,0.821 -0.272,1.453 -0.272,1.897 0,0.443 0.078,0.753 0.234,0.929 -0.282,0.247 -0.581,0.371 -0.899,0.371 -0.317,0 -0.545,-0.095 -0.684,-0.284 -0.138,-0.189 -0.208,-0.482 -0.208,-0.88 0,-0.242 0.089,-0.877 0.265,-1.904 -0.201,0.035 -0.396,0.085 -0.582,0.151z"/>
  <path class="fil0" d="M0.869 5.464c-0.297,0 -0.516,-0.079 -0.657,-0.235 -0.141,-0.156 -0.212,-0.362 -0.212,-0.619 0,-0.257 0.052,-0.675 0.155,-1.255 0.103,-0.579 0.21,-1.108 0.321,-1.587l-0.393 -0.604c0.499,-0.283 0.96,-0.423 1.383,-0.423 0.423,0 0.635,0.191 0.635,0.574 0,0.252 -0.058,0.509 -0.174,0.771l0.076 0.037c0.539,-0.921 1.224,-1.382 2.055,-1.382 0.61,0 0.915,0.304 0.915,0.914 0,0.262 -0.075,0.705 -0.223,1.33 -0.149,0.625 -0.223,1.096 -0.223,1.413 0,0.317 0.053,0.549 0.158,0.695 -0.266,0.247 -0.549,0.371 -0.846,0.371 -0.579,0 -0.869,-0.313 -0.869,-0.937 0,-0.232 0.076,-0.625 0.227,-1.179 0.151,-0.554 0.226,-0.915 0.226,-1.081 0,-0.227 -0.085,-0.34 -0.256,-0.34 -0.142,0 -0.303,0.062 -0.484,0.185 -0.182,0.123 -0.357,0.29 -0.525,0.499 -0.169,0.209 -0.311,0.474 -0.428,0.793 -0.115,0.32 -0.173,0.645 -0.173,0.975 0,0.33 0.053,0.568 0.158,0.714 -0.266,0.247 -0.549,0.371 -0.846,0.371z"/>
  <path class="fil0" d="M39.868 1.059c0,-0.141 0.038,-0.272 0.113,-0.392 0.075,-0.12 0.175,-0.214 0.299,-0.284 0.125,-0.07 0.256,-0.105 0.396,-0.105 0.095,0 0.188,0.018 0.281,0.056 0.093,0.037 0.176,0.089 0.249,0.156 0.073,0.068 0.131,0.15 0.175,0.247 0.043,0.098 0.065,0.203 0.065,0.318 0,0.139 -0.035,0.269 -0.104,0.39 -0.069,0.121 -0.165,0.217 -0.289,0.289 -0.123,0.071 -0.262,0.107 -0.418,0.107 -0.119,0 -0.226,-0.023 -0.322,-0.07 -0.096,-0.047 -0.177,-0.109 -0.245,-0.189 -0.067,-0.079 -0.117,-0.164 -0.15,-0.255 -0.033,-0.09 -0.05,-0.179 -0.05,-0.268zm0.172 -0.087c0,0.136 0.032,0.265 0.096,0.387 0.064,0.122 0.15,0.219 0.257,0.292 0.108,0.073 0.222,0.109 0.342,0.109 0.089,0 0.174,-0.022 0.255,-0.066 0.082,-0.044 0.149,-0.112 0.201,-0.204 0.052,-0.092 0.078,-0.206 0.078,-0.341 0,-0.107 -0.017,-0.209 -0.052,-0.306 -0.035,-0.097 -0.083,-0.181 -0.145,-0.254 -0.062,-0.073 -0.133,-0.13 -0.214,-0.17 -0.081,-0.04 -0.167,-0.06 -0.256,-0.06 -0.099,0 -0.191,0.024 -0.276,0.073 -0.086,0.049 -0.155,0.12 -0.207,0.213 -0.052,0.094 -0.079,0.203 -0.079,0.327zm0.192 0.493c0.107,-0.01 0.118,-0.01 0.177,-0.01 0.04,0 0.062,0 0.086,0.001 0.023,0.002 0.049,0.003 0.095,0.009l0.006 -0.035c-0.02,-0.003 -0.078,-0.016 -0.096,-0.043 -0.019,-0.03 -0.019,-0.174 -0.019,-0.221 0,-0.081 0.001,-0.107 0.003,-0.138 0.036,0.004 0.047,0.004 0.086,0.005 0.236,0.473 0.437,0.473 0.577,0.471l0 -0.038c-0.146,-0.011 -0.256,-0.142 -0.417,-0.45 0.113,-0.037 0.197,-0.125 0.197,-0.231 0,-0.108 -0.091,-0.24 -0.327,-0.24 -0.017,0 -0.066,0.004 -0.116,0.008 -0.049,0.005 -0.099,0.008 -0.118,0.008 -0.017,0 -0.102,-0.002 -0.122,-0.002l-0.006 0.037c0.03,0.002 0.088,0.003 0.096,0.068 0.005,0.033 0.006,0.063 0.006,0.25 0,0.073 -0.003,0.403 -0.013,0.441 -0.01,0.046 -0.033,0.057 -0.095,0.075l0 0.035zm0.539 -0.666c0,0.184 -0.148,0.184 -0.217,0.184 -0.038,0 -0.044,-0.001 -0.066,-0.006 -0.001,-0.125 -0.001,-0.142 0.005,-0.279 0.004,-0.092 0.004,-0.11 0.079,-0.11 0.174,0 0.199,0.159 0.199,0.211z"/>
  <a xlink:href="www.nettex.pl">
   <rect class="fil1" x="13" width="27" height="5"/>
   <path class="fil0" d="M13.811 5.364l-0.047 -0.129c0.233,-0.025 0.374,-0.073 0.424,-0.141 0.037,-0.054 0.068,-0.297 0.09,-0.731 0.023,-0.434 0.034,-0.81 0.034,-1.127l0.007 -1.087c0,-0.297 -0.01,-0.51 -0.032,-0.64 -0.02,-0.13 -0.064,-0.216 -0.129,-0.259 -0.066,-0.043 -0.17,-0.067 -0.312,-0.071l0.006 -0.108c0.128,-0.027 0.239,-0.041 0.334,-0.041 0.03,0 0.144,0.006 0.342,0.016 0.15,0.017 0.268,0.025 0.353,0.025l0.479 -0.014c0,0.04 0.002,0.078 0.007,0.115l-0.175 0.026c-0.109,0.016 -0.185,0.035 -0.224,0.056 -0.04,0.023 -0.069,0.067 -0.087,0.134 -0.019,0.068 -0.038,0.204 -0.058,0.412 -0.021,0.198 -0.031,0.432 -0.031,0.703 0,0.224 0.002,0.401 0.007,0.528l1.558 0c0.595,0 0.964,-0.001 1.104,-0.003 0.14,-0.002 0.243,-0.01 0.306,-0.024l0.007 -0.693c0,-0.376 -0.004,-0.613 -0.012,-0.707 -0.007,-0.096 -0.024,-0.17 -0.048,-0.222 -0.025,-0.07 -0.065,-0.119 -0.121,-0.143 -0.055,-0.025 -0.173,-0.057 -0.353,-0.094l0.017 -0.129c0.101,0.013 0.202,0.025 0.304,0.035 0.131,0.013 0.275,0.02 0.434,0.02 0.039,0 0.154,-0.005 0.343,-0.014 0.2,-0.009 0.311,-0.013 0.335,-0.013l0.014 0.094c-0.031,0.009 -0.052,0.016 -0.064,0.02 -0.09,0.022 -0.157,0.051 -0.204,0.086 -0.046,0.035 -0.08,0.09 -0.1,0.167 -0.021,0.075 -0.035,0.162 -0.041,0.259 -0.006,0.097 -0.014,0.332 -0.022,0.708l-0.029 1.522c-0.012,0.419 -0.006,0.72 0.014,0.903 0.022,0.182 0.062,0.302 0.125,0.357 0.063,0.055 0.172,0.091 0.327,0.109l-0.006 0.101c-0.086,-0.021 -0.193,-0.033 -0.321,-0.04 -0.07,-0.004 -0.163,-0.007 -0.277,-0.007 -0.039,0 -0.172,0.006 -0.396,0.016 -0.178,0.017 -0.316,0.025 -0.413,0.025l-0.013 -0.115c0.151,-0.018 0.258,-0.047 0.32,-0.09 0.062,-0.042 0.103,-0.11 0.123,-0.203 0.02,-0.093 0.033,-0.255 0.039,-0.482l0.018 -0.756 -0.007 -0.436 -0.366 -0.015 -1.885 -0.013 -0.717 0.007c-0.013,0.256 -0.02,0.639 -0.02,1.147 0,0.317 0.013,0.514 0.04,0.592 0.012,0.04 0.031,0.077 0.058,0.105 0.027,0.028 0.073,0.054 0.136,0.076 0.064,0.024 0.161,0.049 0.293,0.075l-0.007 0.108c-0.046,-0.002 -0.127,-0.007 -0.242,-0.015 -0.116,-0.008 -0.227,-0.013 -0.335,-0.019 -0.108,-0.004 -0.205,-0.007 -0.29,-0.007 -0.139,0 -0.344,0.014 -0.614,0.041z"/>
   <path id="_1" class="fil0" d="M19.153 3.194c0,-0.4 0.106,-0.77 0.319,-1.109 0.212,-0.339 0.495,-0.608 0.846,-0.805 0.352,-0.198 0.725,-0.297 1.119,-0.297 0.268,0 0.533,0.053 0.796,0.159 0.261,0.104 0.496,0.253 0.703,0.442 0.206,0.191 0.372,0.424 0.495,0.699 0.122,0.275 0.184,0.574 0.184,0.897 0,0.394 -0.098,0.762 -0.294,1.104 -0.195,0.342 -0.467,0.615 -0.817,0.817 -0.348,0.202 -0.742,0.303 -1.183,0.303 -0.336,0 -0.64,-0.066 -0.91,-0.198 -0.271,-0.132 -0.502,-0.31 -0.692,-0.534 -0.191,-0.224 -0.332,-0.464 -0.425,-0.721 -0.094,-0.256 -0.141,-0.508 -0.141,-0.757zm0.487 -0.248c0,0.385 0.09,0.75 0.271,1.094 0.181,0.345 0.423,0.62 0.727,0.826 0.305,0.206 0.627,0.309 0.966,0.309 0.251,0 0.492,-0.062 0.722,-0.187 0.231,-0.124 0.42,-0.317 0.567,-0.577 0.148,-0.261 0.222,-0.582 0.222,-0.963 0,-0.304 -0.05,-0.593 -0.147,-0.866 -0.099,-0.274 -0.235,-0.513 -0.41,-0.719 -0.175,-0.206 -0.377,-0.366 -0.607,-0.48 -0.229,-0.114 -0.471,-0.17 -0.723,-0.17 -0.279,0 -0.539,0.068 -0.781,0.206 -0.243,0.138 -0.438,0.339 -0.585,0.604 -0.148,0.265 -0.222,0.572 -0.222,0.923z"/>
   <path id="_2" class="fil0" d="M26.021 3.848l-0.381 -0.539c-0.291,0 -0.533,-0.015 -0.725,-0.043l-0.007 0.79c0,0.165 0.005,0.352 0.015,0.559 0.01,0.206 0.031,0.351 0.066,0.437 0.018,0.053 0.047,0.09 0.09,0.111 0.042,0.023 0.138,0.053 0.284,0.093 0.049,0.011 0.072,0.029 0.072,0.054 0,0.049 -0.015,0.074 -0.046,0.074 -0.035,0 -0.127,-0.011 -0.276,-0.034 -0.188,-0.018 -0.303,-0.027 -0.345,-0.027 -0.213,0 -0.432,0.016 -0.658,0.048 -0.016,0 -0.034,0.002 -0.056,0.006 -0.044,0 -0.066,-0.02 -0.066,-0.06 0,-0.023 0.008,-0.04 0.025,-0.051 0.017,-0.011 0.054,-0.025 0.111,-0.04 0.1,-0.027 0.171,-0.066 0.215,-0.12 0.045,-0.054 0.077,-0.16 0.097,-0.317 0.019,-0.156 0.03,-0.409 0.032,-0.756l0 -1.457c0.005,-0.355 0.004,-0.616 -0.003,-0.783 -0.007,-0.168 -0.025,-0.29 -0.053,-0.369 -0.029,-0.077 -0.073,-0.129 -0.134,-0.155 -0.06,-0.027 -0.154,-0.047 -0.283,-0.063l0.014 -0.108c0.117,0.004 0.266,0.006 0.446,0.006 0.053,0 0.246,-0.013 0.578,-0.04 0.331,-0.027 0.542,-0.041 0.63,-0.041 0.232,0 0.441,0.032 0.625,0.096 0.186,0.064 0.341,0.149 0.466,0.254 0.124,0.106 0.218,0.226 0.283,0.361 0.064,0.136 0.095,0.275 0.095,0.418 0,0.147 -0.032,0.29 -0.099,0.429 -0.066,0.138 -0.165,0.264 -0.301,0.378 -0.134,0.113 -0.306,0.21 -0.518,0.289l0.151 0.223c0.21,0.312 0.383,0.563 0.522,0.755 0.137,0.191 0.284,0.377 0.439,0.555 0.156,0.18 0.313,0.325 0.475,0.436 0.162,0.112 0.32,0.174 0.473,0.187 0.042,0.007 0.062,0.03 0.062,0.068 0,0.02 -0.01,0.035 -0.029,0.045 -0.021,0.01 -0.067,0.016 -0.141,0.016 -0.213,0 -0.417,-0.047 -0.614,-0.142 -0.198,-0.094 -0.385,-0.221 -0.562,-0.381 -0.178,-0.16 -0.335,-0.327 -0.474,-0.5 -0.14,-0.173 -0.304,-0.393 -0.495,-0.662zm-1.086 -0.776c0.148,0.036 0.327,0.054 0.537,0.054 0.106,0 0.218,-0.008 0.336,-0.023 0.119,-0.015 0.24,-0.049 0.365,-0.102 0.124,-0.052 0.233,-0.141 0.323,-0.265 0.091,-0.125 0.136,-0.292 0.136,-0.501 0,-0.149 -0.039,-0.305 -0.117,-0.468 -0.079,-0.162 -0.2,-0.303 -0.364,-0.419 -0.163,-0.117 -0.362,-0.176 -0.596,-0.176 -0.097,0 -0.208,0.012 -0.33,0.037 -0.122,0.026 -0.194,0.066 -0.213,0.12 -0.051,0.107 -0.077,0.688 -0.077,1.743z"/>
   <path id="_3" class="fil0" d="M31.94 4.363l0.101 0c-0.035,0.229 -0.073,0.419 -0.116,0.57 -0.042,0.15 -0.095,0.295 -0.161,0.431 -0.072,-0.008 -0.171,-0.015 -0.298,-0.018 -0.125,-0.005 -0.3,-0.007 -0.527,-0.007 -0.137,0 -0.283,-0.002 -0.44,-0.008 -0.156,-0.005 -0.223,-0.008 -0.201,-0.008 -0.143,0 -0.31,0.002 -0.501,0.005 -0.19,0.002 -0.419,0.008 -0.688,0.016 -0.268,0.008 -0.465,0.014 -0.59,0.02l0.006 -0.115c0.069,-0.016 0.138,-0.033 0.209,-0.051 0.071,-0.019 0.118,-0.039 0.144,-0.061 0.025,-0.022 0.043,-0.049 0.054,-0.081 0.011,-0.031 0.023,-0.089 0.033,-0.172 0.013,-0.084 0.027,-0.235 0.039,-0.452 0.013,-0.219 0.023,-0.463 0.031,-0.735 0.007,-0.272 0.01,-0.441 0.007,-0.51l-0.021 -1.045c-0.006,-0.324 -0.018,-0.544 -0.037,-0.658 -0.019,-0.114 -0.055,-0.189 -0.108,-0.226 -0.053,-0.039 -0.155,-0.071 -0.303,-0.1 0,-0.036 0.002,-0.065 0.006,-0.087l2.115 0c0.238,0 0.597,-0.009 1.077,-0.027 -0.012,0.189 -0.031,0.378 -0.059,0.567 -0.028,0.19 -0.065,0.284 -0.109,0.284 -0.055,0 -0.083,-0.016 -0.083,-0.049 0,-0.014 0.005,-0.055 0.014,-0.125 0.009,-0.071 0.012,-0.112 0.012,-0.122 0,-0.161 -0.095,-0.264 -0.288,-0.308 -0.193,-0.043 -0.423,-0.065 -0.692,-0.065 -0.323,0 -0.66,0.023 -1.013,0.068 -0.041,0.365 -0.061,0.671 -0.061,0.92 0,0.163 0.001,0.35 0.004,0.562 0.002,0.21 0.003,0.309 0.003,0.296 0.053,0.004 0.214,0.007 0.486,0.007 0.466,0 0.786,-0.009 0.96,-0.027 0.099,-0.01 0.165,-0.024 0.2,-0.04 0.034,-0.015 0.067,-0.054 0.097,-0.117 0.032,-0.063 0.065,-0.159 0.103,-0.29l0.094 0.007c0,0.228 0,0.432 -0.001,0.612 -0.001,0.18 -0.003,0.386 -0.005,0.619l-0.115 0c-0.007,-0.203 -0.038,-0.344 -0.092,-0.424 -0.053,-0.079 -0.157,-0.13 -0.311,-0.152 -0.154,-0.022 -0.428,-0.033 -0.822,-0.033 -0.253,0 -0.451,0.011 -0.594,0.033l-0.014 0.471c-0.015,0.573 0.005,1.016 0.061,1.327 0.04,0.012 0.087,0.023 0.142,0.036 0.055,0.014 0.107,0.024 0.157,0.032 0.049,0.008 0.12,0.016 0.213,0.024 0.092,0.007 0.208,0.011 0.347,0.011 0.345,0 0.616,-0.025 0.813,-0.076 0.198,-0.05 0.348,-0.131 0.452,-0.244 0.105,-0.112 0.195,-0.274 0.27,-0.485z"/>
   <path id="_4" class="fil0" d="M36.171 4.66c-0.011,0.028 -0.057,0.191 -0.141,0.488 -0.238,0.071 -0.453,0.126 -0.647,0.164 -0.193,0.04 -0.404,0.059 -0.631,0.059 -0.272,0 -0.545,-0.049 -0.819,-0.146 -0.273,-0.097 -0.518,-0.24 -0.736,-0.43 -0.217,-0.191 -0.391,-0.423 -0.518,-0.698 -0.127,-0.274 -0.192,-0.586 -0.192,-0.935 0,-0.48 0.119,-0.885 0.355,-1.215 0.237,-0.33 0.538,-0.573 0.904,-0.73 0.366,-0.157 0.745,-0.234 1.134,-0.234 0.306,0 0.6,0.053 0.884,0.16 0.132,0.041 0.231,0.063 0.298,0.063 0.03,-0.007 0.053,-0.012 0.067,-0.014 0.014,-0.002 0.032,-0.004 0.054,-0.007 0.014,0 0.027,0.009 0.043,0.026l-0.048 0.189c-0.046,0.165 -0.086,0.375 -0.121,0.631 -0.04,-0.007 -0.067,-0.021 -0.081,-0.041 -0.013,-0.021 -0.02,-0.055 -0.02,-0.101 -0.005,-0.138 -0.023,-0.232 -0.056,-0.283 -0.059,-0.096 -0.208,-0.195 -0.446,-0.297 -0.237,-0.1 -0.476,-0.151 -0.716,-0.151 -0.317,0 -0.603,0.079 -0.859,0.236 -0.257,0.158 -0.46,0.389 -0.607,0.692 -0.149,0.304 -0.224,0.66 -0.224,1.069 0,0.377 0.066,0.701 0.197,0.973 0.13,0.271 0.295,0.487 0.492,0.645 0.196,0.158 0.397,0.273 0.6,0.343 0.204,0.071 0.38,0.106 0.529,0.106 0.238,0 0.435,-0.039 0.592,-0.117 0.155,-0.079 0.278,-0.173 0.367,-0.281 0.089,-0.109 0.176,-0.24 0.259,-0.392 0.033,-0.064 0.062,-0.096 0.086,-0.096 0.042,0 0.063,0.021 0.063,0.06 0,0.028 -0.02,0.116 -0.062,0.264z"/>
   <path id="_5" class="fil0" d="M39.276 5.337l0 -0.108c0.101,-0.018 0.181,-0.041 0.242,-0.07 0.061,-0.028 0.09,-0.077 0.09,-0.146 0,-0.064 -0.019,-0.156 -0.06,-0.277 -0.039,-0.121 -0.07,-0.205 -0.09,-0.251l-0.246 -0.663c-0.128,-0.018 -0.336,-0.027 -0.625,-0.027l-0.261 0c-0.263,-0.009 -0.494,0.005 -0.692,0.041l-0.242 0.609c-0.105,0.255 -0.159,0.414 -0.159,0.477 0,0.077 0.034,0.14 0.104,0.192 0.069,0.05 0.211,0.091 0.424,0.121l0 0.109c-0.257,-0.027 -0.477,-0.041 -0.657,-0.041 -0.185,0 -0.385,0.009 -0.601,0.027l0 -0.095c0.132,-0.032 0.234,-0.085 0.303,-0.155 0.054,-0.047 0.123,-0.157 0.21,-0.329 0.087,-0.174 0.176,-0.362 0.265,-0.565 0.089,-0.204 0.153,-0.363 0.193,-0.476l0.527 -1.265c0.067,-0.152 0.134,-0.311 0.203,-0.476 0.07,-0.167 0.135,-0.334 0.197,-0.501 0.061,-0.166 0.106,-0.302 0.135,-0.402 0,-0.029 0.007,-0.05 0.019,-0.063l0.117 -0.014c0.067,0.245 0.143,0.479 0.225,0.705l0.696 1.861c0.179,0.465 0.315,0.808 0.406,1.03 0.092,0.221 0.171,0.38 0.238,0.475 0.055,0.081 0.17,0.13 0.343,0.148l0 0.115c-0.18,-0.018 -0.353,-0.027 -0.52,-0.027 -0.132,0 -0.255,0.004 -0.368,0.01 -0.113,0.007 -0.202,0.013 -0.268,0.019 -0.066,0.005 -0.116,0.01 -0.148,0.012zm-1.053 -2.976l-0.377 0.966c-0.051,0.137 -0.086,0.224 -0.104,0.259 0.168,0.022 0.36,0.034 0.579,0.034l0.304 -0.007c0.184,0 0.348,-0.005 0.494,-0.014 -0.077,-0.225 -0.126,-0.358 -0.148,-0.4l-0.236 -0.608c-0.026,-0.067 -0.076,-0.187 -0.149,-0.361 -0.073,-0.175 -0.126,-0.293 -0.159,-0.357 -0.043,0.092 -0.079,0.177 -0.108,0.253 -0.031,0.077 -0.062,0.155 -0.096,0.235z"/>
  </a>
 </g>
</svg>
